<svg id="Layer_1" data-name="Layer 1" xmlns="http://www.w3.org/2000/svg" viewBox="0 0 512 512"><title>calendar-quarter</title><rect width="512" height="512" fill="#5168ae"/><path d="M106.63,119.08V69.29a12.45,12.45,0,0,1,24.89,0v49.79a12.45,12.45,0,0,1-24.89,0Zm211.61,12.45a12.44,12.44,0,0,0,12.45-12.45V69.29a12.45,12.45,0,0,0-24.89,0v49.79A12.44,12.44,0,0,0,318.24,131.53ZM455.16,355.58A99.58,99.58,0,1,1,355.58,256,99.58,99.58,0,0,1,455.16,355.58Zm-24.89,0a74.68,74.68,0,1,0-74.68,74.68A74.77,74.77,0,0,0,430.26,355.58ZM156.42,206.21H106.63V256h49.79ZM106.63,330.68h49.79V280.89H106.63ZM181.32,256h49.79V206.21H181.32Zm0,74.68h49.79V280.89H181.32ZM81.74,353.1V181.32H355.58v49.79h24.89V134a27.16,27.16,0,0,0-27-27.38H343.13v12.45a24.89,24.89,0,0,1-49.79,0V106.63H144v12.45a24.89,24.89,0,1,1-49.79,0V106.63H83.83a27.17,27.17,0,0,0-27,27.38V353.1a27.2,27.2,0,0,0,27,27.37H231.11V355.58H83.83A2.36,2.36,0,0,1,81.74,353.1ZM305.79,256V206.21H256V256Zm49.79,37.34H343.13V368h74.68V355.58A62.29,62.29,0,0,0,355.58,293.34Z" fill="#fff"/></svg>